<?xml version="1.0" standalone="no"?>
<!DOCTYPE svg PUBLIC "-//W3C//DTD SVG 20010904//EN"
 "http://www.w3.org/TR/2001/REC-SVG-20010904/DTD/svg10.dtd">
<svg version="1.0" xmlns="http://www.w3.org/2000/svg"
 width="550.000000pt" height="550.000000pt" viewBox="0 0 550.000000 550.000000"
 preserveAspectRatio="xMidYMid meet">

<g transform="translate(0.000000,550.000000) scale(0.100000,-0.100000)"
fill="current" stroke="none">
<path d="M2538 5045 c-334 -46 -627 -193 -873 -440 -372 -371 -515 -841 -430
-1415 70 -469 289 -1017 648 -1615 254 -424 745 -1091 827 -1125 22 -9 42 -10
68 -4 32 8 55 31 165 169 236 296 518 705 711 1035 123 209 325 614 395 790
329 830 319 1436 -32 1955 -80 118 -274 312 -392 392 -93 62 -235 138 -327
173 -226 87 -511 119 -760 85z m467 -230 c129 -27 233 -64 346 -121 361 -184
608 -513 696 -924 24 -115 24 -402 -1 -545 -94 -551 -366 -1156 -841 -1875
-157 -237 -436 -617 -455 -619 -8 -1 -167 201 -273 345 -556 763 -926 1539
-1024 2145 -24 149 -24 436 0 549 38 179 108 348 205 495 62 93 249 280 343
343 177 118 373 193 575 221 97 14 334 6 429 -14z"/>
<path d="M2218 4285 c-54 -58 -98 -238 -98 -405 0 -107 -2 -119 -31 -180 -30
-64 -79 -246 -79 -296 0 -16 -4 -23 -11 -18 -9 5 -10 -1 -4 -22 4 -16 11 -67
15 -114 4 -47 18 -116 30 -155 19 -59 31 -78 89 -135 84 -84 178 -132 326
-166 97 -22 133 -25 305 -25 172 -1 208 2 303 24 203 47 345 142 406 271 67
143 61 399 -15 587 -14 35 -30 68 -35 73 -5 6 -9 47 -9 91 0 206 -62 454 -121
486 -45 24 -108 -6 -256 -121 l-71 -56 -204 1 -203 1 -70 56 c-91 74 -164 117
-207 124 -29 5 -39 2 -60 -21z m308 -706 c55 -28 94 -75 94 -112 0 -35 -11
-34 -66 8 -86 66 -99 70 -216 69 l-107 0 33 22 c72 50 178 55 262 13z m671 16
c28 -8 61 -23 73 -33 21 -17 18 -17 -87 -17 -117 0 -133 -5 -225 -78 -20 -16
-41 -26 -47 -22 -29 17 4 86 58 119 73 47 144 56 228 31z m-1003 -245 c33 -5
67 -16 75 -25 14 -13 9 -15 -47 -15 -35 0 -83 5 -108 11 -36 9 -42 14 -33 25
14 17 34 17 113 4z m1245 -4 c10 -12 6 -17 -26 -25 -47 -13 -163 -14 -163 -2
0 15 16 22 68 31 74 12 109 11 121 -4z m-627 -64 c55 -48 104 -65 164 -59 29
3 64 13 78 22 45 30 54 11 14 -28 -73 -70 -207 -76 -268 -12 -29 31 -35 31
-72 0 -63 -53 -179 -58 -249 -9 -34 23 -55 51 -46 61 2 2 24 -6 48 -17 78 -35
152 -22 227 40 45 37 62 38 104 2z m-522 -32 c0 -19 -109 -60 -162 -60 -43 0
-33 16 25 38 72 29 137 39 137 22z m1083 -23 c67 -26 74 -41 15 -34 -79 10
-105 19 -134 44 l-29 24 45 -6 c25 -3 71 -16 103 -28z m-1063 -49 c0 -18 -112
-118 -132 -118 -27 0 -22 12 25 56 67 65 107 88 107 62z m945 -7 c17 -10 50
-38 74 -62 32 -33 40 -45 28 -47 -22 -5 -38 6 -97 62 -66 63 -68 86 -5 47z"/>
</g>
</svg>
