<?xml version="1.0" standalone="no"?>
<!DOCTYPE svg PUBLIC "-//W3C//DTD SVG 20010904//EN"
 "http://www.w3.org/TR/2001/REC-SVG-20010904/DTD/svg10.dtd">
<svg version="1.0" xmlns="http://www.w3.org/2000/svg"
 width="533.000000pt" height="94.000000pt" viewBox="0 0 533.000000 94.000000"
 preserveAspectRatio="xMidYMid meet">

<g transform="translate(0.000000,94.000000) scale(0.100000,-0.100000)"
fill="current" stroke="none">
<path d="M4380 935 c0 -3 0 -132 0 -287 -1 -306 0 -308 54 -294 19 5 24 14 29
56 8 63 37 170 47 170 4 0 8 -34 9 -76 2 -89 11 -117 44 -139 31 -20 71 -11
96 21 24 31 26 30 41 -6 24 -57 75 -66 113 -20 14 16 27 34 29 41 2 6 20 -5
40 -25 30 -30 43 -36 77 -36 89 0 131 52 152 188 10 69 15 82 31 82 17 0 18
-6 12 -59 -12 -109 27 -211 81 -211 41 0 85 74 85 141 0 39 -17 37 -26 -3 -11
-54 -37 -99 -53 -96 -28 6 -35 73 -17 166 9 46 15 87 12 89 -2 2 -26 7 -53 11
-43 6 -48 10 -51 35 -3 28 -9 31 -36 21 -13 -5 -16 -23 -16 -98 0 -149 -33
-226 -97 -226 -30 0 -63 34 -63 65 0 19 5 25 23 25 27 0 71 42 86 83 28 73 -4
137 -68 137 -60 0 -91 -43 -116 -159 -21 -99 -40 -141 -63 -141 -29 0 -32 17
-32 166 0 152 -2 148 82 149 29 0 48 4 48 11 0 16 -24 24 -75 24 l-44 0 -3 68
-3 67 -32 3 -33 3 0 -48 c0 -80 -7 -92 -53 -95 -56 -4 -59 -24 -5 -35 l43 -9
-2 -109 c-3 -122 -21 -178 -60 -183 -31 -4 -37 28 -30 148 6 105 -4 140 -43
140 -26 0 -48 -35 -76 -123 l-23 -72 6 150 c3 83 9 179 13 215 4 36 6 68 3 73
-5 8 -83 10 -83 2z m614 -337 c-1 -46 -28 -88 -55 -88 -19 0 -20 4 -14 37 10
55 33 95 53 91 13 -3 17 -13 16 -40z"/>
<path d="M1694 891 c-58 -35 -96 -123 -96 -220 0 -93 46 -156 109 -149 39 4
36 31 -5 39 -48 10 -55 21 -60 87 -5 72 18 159 50 189 89 81 125 -7 114 -279
l-7 -158 26 -26 c17 -17 34 -24 53 -22 25 3 27 7 34 66 4 35 22 109 40 165
l32 102 6 -130 c7 -141 21 -187 65 -207 26 -11 75 -4 75 12 0 6 -6 10 -13 10
-23 0 -44 33 -51 80 -8 61 10 288 25 306 10 12 8 20 -8 41 -28 39 -67 65 -85
58 -10 -4 -25 -43 -42 -108 -14 -56 -35 -128 -45 -161 l-18 -58 -6 47 c-4 26
-7 71 -7 99 -1 103 -36 187 -91 220 -35 21 -57 20 -95 -3z"/>
<path d="M145 885 c-54 -19 -102 -76 -110 -129 -12 -78 21 -125 168 -244 110
-89 123 -128 52 -157 -43 -19 -96 -19 -139 -1 -41 17 -49 30 -48 73 2 37 -4
40 -36 17 -30 -20 -29 -64 2 -93 68 -64 254 -67 321 -5 19 18 25 33 25 67 0
58 -27 92 -137 177 -98 76 -123 109 -123 168 0 104 119 136 172 47 28 -49 59
-45 71 8 11 47 1 61 -58 76 -58 15 -111 13 -160 -4z"/>
<path d="M457 873 c-4 -3 -7 -35 -7 -70 l0 -63 -45 0 c-32 0 -45 -4 -45 -14 0
-16 21 -26 55 -26 23 0 23 -1 27 -142 4 -156 16 -198 63 -220 59 -27 114 51
138 194 10 57 17 74 31 76 17 4 18 -1 12 -54 -17 -156 58 -266 127 -185 l26
31 30 -30 c25 -26 37 -30 81 -30 46 0 56 4 88 36 26 26 37 32 43 22 5 -7 9
-16 9 -20 0 -15 61 -38 101 -38 35 0 48 6 80 39 22 21 39 33 39 26 0 -25 51
-75 76 -75 45 0 90 65 101 146 8 59 -14 58 -32 -2 -25 -83 -52 -106 -76 -63
-12 24 -9 272 4 285 4 4 32 8 62 8 34 1 55 5 55 12 0 17 -24 24 -77 24 l-46 0
7 64 c7 69 2 76 -50 76 -23 0 -24 -3 -24 -70 l0 -70 -44 0 c-25 0 -47 -4 -51
-9 -7 -13 27 -31 59 -31 l26 0 0 -93 c0 -149 -33 -227 -96 -227 -29 0 -62 29
-70 63 -6 24 -4 27 21 27 42 0 92 56 100 114 10 65 -14 100 -72 104 -35 3 -44
-1 -66 -28 -27 -32 -57 -115 -57 -157 0 -32 -27 -93 -48 -109 -29 -22 -68 -17
-91 12 -28 36 -27 64 2 64 45 0 92 53 97 110 7 75 -17 110 -75 110 -61 0 -99
-59 -116 -179 -14 -99 -51 -158 -75 -120 -10 17 -7 137 6 191 7 27 9 52 6 56
-4 3 -28 9 -54 12 -42 4 -47 8 -50 32 -4 38 -37 58 -95 58 l-48 0 7 61 c5 47
4 63 -7 70 -17 10 -53 12 -62 2z m152 -280 c-6 -122 -24 -188 -54 -199 -9 -4
-21 -2 -26 3 -16 16 -22 105 -14 206 7 104 6 102 75 106 l25 1 -6 -117z m371
11 c0 -45 -28 -94 -53 -94 -17 0 -19 5 -14 40 11 81 67 126 67 54z m233 -8
c-3 -48 -27 -86 -53 -86 -26 0 -26 31 0 88 14 31 25 43 37 40 14 -3 17 -12 16
-42z"/>
<path d="M3655 871 c-140 -5 -176 -9 -198 -24 -46 -30 -34 -99 30 -184 31 -42
63 -44 63 -5 0 20 -13 41 -45 72 -85 84 -56 107 113 91 63 -7 119 -14 123 -17
4 -2 1 -20 -7 -40 -8 -19 -17 -71 -21 -115 l-6 -79 -51 0 c-51 0 -76 -12 -76
-37 0 -7 7 -10 15 -7 8 4 35 3 60 0 50 -8 55 -22 34 -87 -17 -48 -38 -69 -71
-69 -44 0 -65 16 -78 57 -15 47 -38 67 -57 52 -18 -16 -16 -38 6 -75 35 -57
122 -79 214 -53 46 12 66 41 74 108 6 55 7 55 79 64 32 3 32 3 36 -52 4 -44
10 -59 32 -78 35 -30 76 -29 110 2 l27 25 9 -24 c12 -33 48 -56 87 -56 27 0
37 6 53 32 l20 33 0 -33 c0 -25 -8 -40 -35 -63 -41 -37 -92 -136 -100 -200 -6
-40 -3 -50 18 -75 22 -25 31 -28 82 -29 52 0 60 3 79 28 18 25 21 44 24 163 4
124 5 134 23 134 26 0 24 21 -2 27 -21 6 -21 10 -17 109 4 81 2 104 -9 108 -9
4 -12 16 -7 43 4 29 1 44 -14 63 -22 29 -100 55 -136 46 -32 -8 -62 -72 -76
-165 -16 -109 -43 -153 -85 -137 -15 5 -17 19 -14 124 l4 117 -37 3 -38 3 0
-57 c0 -54 -1 -56 -22 -50 -13 3 -35 6 -50 6 -28 0 -28 1 -28 63 0 87 16 137
52 169 30 26 31 28 14 52 -9 15 -20 25 -24 24 -4 -1 -84 -4 -177 -7z m571
-226 c8 -34 -12 -179 -31 -215 -19 -37 -49 -55 -63 -37 -33 39 -20 201 19 251
27 34 66 35 75 1z m2 -448 c-2 -78 -8 -110 -21 -131 -39 -58 -85 -3 -67 81 12
54 64 153 81 153 8 0 10 -33 7 -103z"/>
<path d="M3898 813 c-26 -7 -22 -28 9 -53 28 -22 74 -24 80 -3 5 15 -41 63
-59 62 -7 -1 -21 -3 -30 -6z"/>
<path d="M2475 706 c-33 -33 -55 -116 -55 -210 0 -105 19 -147 73 -159 47 -11
80 8 98 57 l12 34 21 -31 c25 -37 55 -45 89 -22 22 14 25 14 30 0 4 -9 19 -15
36 -15 25 0 32 5 37 28 12 57 34 128 44 142 7 11 10 -6 10 -57 0 -78 13 -103
55 -103 13 0 37 12 54 26 25 21 31 22 31 9 0 -9 11 -27 25 -40 34 -35 86 -34
114 1 l21 27 0 -27 c0 -17 -14 -40 -40 -66 -56 -56 -82 -113 -88 -191 -4 -64
-3 -68 22 -84 15 -10 49 -20 75 -23 40 -3 51 -1 68 18 28 29 33 61 33 196 0
106 1 114 19 114 31 0 35 19 5 26 l-26 7 4 86 c3 47 9 94 13 104 5 12 3 17 -9
17 -12 0 -16 11 -16 48 0 27 -6 56 -12 65 -14 18 -89 47 -123 47 -45 0 -77
-63 -94 -183 -11 -78 -33 -137 -52 -137 -18 0 -30 55 -24 110 14 123 -37 148
-92 45 l-32 -60 -1 86 c0 70 -3 88 -16 93 -39 15 -41 9 -48 -121 -7 -132 -17
-166 -43 -161 -23 4 -35 54 -28 115 4 31 2 54 -4 58 -6 3 -11 21 -11 40 0 54
-18 82 -64 99 -57 22 -83 20 -111 -8z m693 -68 c12 -47 -18 -201 -45 -230 -20
-22 -49 -23 -57 -2 -9 25 -7 156 4 193 12 44 37 71 66 71 18 0 25 -8 32 -32z
m-577 0 c8 -16 9 -34 1 -72 -6 -28 -14 -70 -17 -93 -7 -56 -24 -91 -48 -99
-29 -9 -40 10 -45 76 -6 78 4 138 28 178 24 39 63 44 81 10z m565 -553 c-28
-67 -76 -54 -76 20 0 54 23 119 58 164 l27 36 3 -92 c2 -64 -2 -103 -12 -128z"/>
<path d="M2150 694 c-13 -34 -13 -243 1 -281 11 -34 67 -70 93 -60 9 4 26 27
37 52 11 25 22 45 24 45 3 0 5 -18 5 -40 0 -32 -6 -45 -34 -70 -51 -46 -97
-141 -103 -210 -5 -53 -4 -59 19 -74 52 -34 79 -31 131 17 l47 44 0 113 c0 96
3 115 18 126 16 12 16 13 -1 26 -17 13 -18 27 -15 146 3 138 2 142 -41 142
-14 0 -20 -15 -30 -80 -20 -134 -55 -210 -83 -182 -15 15 -13 225 3 263 10 26
10 32 -2 40 -28 17 -59 10 -69 -17z m156 -465 c-9 -114 -26 -162 -58 -157 -43
6 -36 110 12 196 45 77 54 69 46 -39z"/>
</g>
</svg>
