<svg width="72" height="105" viewBox="0 0 72 105" fill="none" xmlns="http://www.w3.org/2000/svg">
<path d="M37.2229 7.896C23.4141 7.896 12.2238 19.878 12.2238 34.6526C12.2238 49.4312 37.2229 97.896 37.2229 97.896C37.2229 97.896 62.2238 49.4312 62.2238 34.6526C62.2238 19.878 51.0263 7.896 37.2229 7.896V7.896Z" fill="#EF4A4A"/>
<g filter="url(#filter0_d_2465_796)">
<path d="M36.8763 45.9911C34.0279 46.0194 31.3271 45.6628 28.7906 44.4971C25.6595 43.0582 24.065 40.5373 24.0031 37.0377C23.9572 34.4437 24.4138 31.9604 25.5764 29.6152C25.8611 29.0408 25.9697 28.3114 25.955 27.658C25.9027 25.3248 26.1953 23.0608 27.0155 20.8789C27.1493 20.5229 27.3832 20.2076 27.5422 19.8598C27.9566 18.9533 28.6381 18.7807 29.4166 19.2614C30.7082 20.0589 31.9328 20.9694 33.2262 21.7636C33.7117 22.0617 34.3046 22.312 34.8584 22.3349C36.5763 22.406 38.3001 22.3939 40.019 22.3337C40.5476 22.3152 41.1288 22.1408 41.5799 21.8602C42.8735 21.0558 44.0734 20.0902 45.3859 19.323C46.435 18.7097 47.2506 19.219 47.7214 20.3772C48.7419 22.8877 48.9688 25.4979 49.0119 28.1795C49.026 29.0561 49.564 29.9323 49.9001 30.7934C51.0676 33.7853 51.3871 36.9162 50.4614 39.9456C49.5414 42.9561 47.0056 44.3954 44.1508 45.2372C41.7984 45.9309 39.3894 46.0359 36.8763 45.9911ZM27.6268 35.7338C27.292 35.7002 26.9571 35.6666 26.472 35.6137C26.22 35.6204 25.9679 35.627 25.5838 35.5943C25.489 35.7824 25.3942 35.9704 25.4272 36.2377C26.5474 36.3796 27.6677 36.5215 28.7879 36.6634C28.818 36.5093 28.8481 36.3552 28.8781 36.2011C28.4819 36.0901 28.0856 35.979 27.6268 35.7338ZM33.5209 38.9814C34.8559 39.4657 35.9864 38.9845 37.084 38.2397C37.284 38.1039 37.6506 38.0577 37.8696 38.1482C38.5525 38.4304 39.1721 38.8994 39.8701 39.1099C41.0665 39.4709 42.5785 38.7387 42.9201 37.6984C42.6205 37.7686 42.3352 37.7855 42.0948 37.9002C40.6742 38.5781 39.5413 38.0073 38.4847 37.0713C37.6298 36.3139 37.2961 36.3064 36.3957 37.0919C35.4466 37.9199 34.3889 38.264 33.1517 37.9473C32.7305 37.8395 32.3 37.7691 31.8738 37.6816C31.8229 37.7825 31.7721 37.8835 31.7212 37.9844C32.2714 38.3052 32.8215 38.6261 33.5209 38.9814ZM32.158 31.3443C31.085 31.4992 30.0104 31.6441 28.9412 31.8228C28.8174 31.8434 28.7237 32.0514 28.616 32.1725C28.7744 32.2343 28.9468 32.3732 29.0892 32.3464C31.0459 31.9782 32.6486 32.7452 34.1508 33.9114C34.3516 34.0673 34.686 34.0442 34.9586 34.1039C34.9259 33.8024 34.9753 33.4567 34.8462 33.207C34.3123 32.1741 33.339 31.7343 32.158 31.3443ZM44.9529 31.3964C43.4699 31.0631 42.1118 31.359 40.8787 32.253C40.2257 32.7264 39.8163 33.311 40.0827 34.2753C41.1198 33.6857 42.0397 32.9565 43.0809 32.629C44.1181 32.3027 45.2771 32.3796 46.6583 32.2548C45.9799 31.9009 45.5422 31.6726 44.9529 31.3964ZM25.576 38.4542C25.716 38.5747 25.8915 38.8239 25.9906 38.7956C26.985 38.5109 27.9697 38.1893 28.9477 37.8496C29.043 37.8164 29.0747 37.5925 29.1422 37.4435C28.0847 37.284 26.6794 37.6524 25.576 38.4542ZM49.3645 38.5659C48.5729 37.6278 46.9661 37.2251 45.935 38.0029C47.058 38.2321 48.181 38.4613 49.3645 38.5659ZM47.237 40.641C47.5501 40.8123 47.8631 40.9835 48.1761 41.1548C48.2272 41.0801 48.2784 41.0053 48.3295 40.9306C47.6542 39.9384 46.8045 39.1461 45.5013 38.5217C45.6545 39.725 46.664 39.9212 47.237 40.641ZM28.3591 39.1245C27.7717 39.6361 27.1843 40.1478 26.5969 40.6594C26.6687 40.749 26.7405 40.8387 26.8123 40.9283C27.9271 40.674 28.5837 39.7768 29.2388 38.8136C28.983 38.8861 28.7272 38.9585 28.3591 39.1245Z" fill="white"/>
</g>
<defs>
<filter id="filter0_d_2465_796" x="20" y="19" width="35" height="35" filterUnits="userSpaceOnUse" color-interpolation-filters="sRGB">
<feFlood flood-opacity="0" result="BackgroundImageFix"/>
<feColorMatrix in="SourceAlpha" type="matrix" values="0 0 0 0 0 0 0 0 0 0 0 0 0 0 0 0 0 0 127 0" result="hardAlpha"/>
<feOffset dy="4"/>
<feGaussianBlur stdDeviation="2"/>
<feComposite in2="hardAlpha" operator="out"/>
<feColorMatrix type="matrix" values="0 0 0 0 0 0 0 0 0 0 0 0 0 0 0 0 0 0 0.25 0"/>
<feBlend mode="normal" in2="BackgroundImageFix" result="effect1_dropShadow_2465_796"/>
<feBlend mode="normal" in="SourceGraphic" in2="effect1_dropShadow_2465_796" result="shape"/>
</filter>
</defs>
</svg>
